<svg enable-background="new 0 0 512.003 512.003" height="512" viewBox="0 0 512.003 512.003" width="512" xmlns="http://www.w3.org/2000/svg"><path d="m171.052 312.003v-123c0-19.767-2.904-39.142-8.39-57.614-48.988-7.807-77.11-41.386-77.11-41.386l-.96-1.025c17.076 30.043 26.46 64.406 26.46 100.025v123c0 55.229 44.772 100 100 100h60c-55.229 0-100-44.772-100-100z" fill="#cee1f2"/><path d="m366.042 432.003h-154.99c-66.168 0-120-53.832-120-120v-123c0-61.51-30.658-118.445-82.009-152.303-9.222-6.08-11.769-18.484-5.689-27.706 6.08-9.223 18.483-11.77 27.707-5.688 29.314 19.328 53.096 44.82 70.102 74.17 3.675 4.117 33.309 35.527 81.889 35.527h230.308c30.575 0 58.897 13.826 77.703 37.934s25.324 54.942 17.884 84.599l-26.512 105.67c-13.414 53.459-61.276 90.797-116.393 90.797zm-240.037-290.299c3.325 15.361 5.046 31.2 5.046 47.299v123c0 44.112 35.888 80 80 80h154.99c36.745 0 68.653-24.892 77.595-60.532l26.512-105.67c4.421-17.619.548-35.938-10.625-50.261s-28-22.537-46.165-22.537h-230.306c-21.972 0-41.096-4.737-57.047-11.299zm75.047 345.299c0-13.807-11.193-25-25-25s-25 11.193-25 25 11.193 25 25 25 25-11.193 25-25zm199 0c0-13.807-11.193-25-25-25s-25 11.193-25 25 11.193 25 25 25 25-11.193 25-25z" fill="#1428bf"/><path d="m413.36 233.003h-222.308c-11.046 0-20-8.954-20-20s8.954-20 20-20h222.308c11.046 0 20 8.954 20 20s-8.954 20-20 20z" fill="#de5cee"/></svg>