<svg enable-background="new 0 0 512 512" viewBox="0 0 512 512" xmlns="http://www.w3.org/2000/svg"><path d="m33.067 136.533h444.8v330.667h-444.8z" fill="#ffd15c"/><path d="m283.733 228.267h162.133v238.933h-162.133z" fill="#415a6b"/><path d="m299.733 244.267h130.133v206.933h-130.133z" fill="#8ad7f8"/><path d="m0 102.4v48c0 28.8 22.4 51.2 51.2 51.2s51.2-22.4 51.2-51.2v-48z" fill="#f05540"/><path d="m102.4 102.4v48c0 28.8 22.4 51.2 51.2 51.2s51.2-22.4 51.2-51.2v-48z" fill="#e8eae9"/><path d="m204.8 102.4v48c0 28.8 22.4 51.2 51.2 51.2s51.2-22.4 51.2-51.2v-48z" fill="#f05540"/><path d="m307.2 102.4v48c0 28.8 22.4 51.2 51.2 51.2s51.2-22.4 51.2-51.2v-48z" fill="#e8eae9"/><path d="m409.6 102.4v48c0 28.8 22.4 51.2 51.2 51.2s51.2-22.4 51.2-51.2v-48z" fill="#f05540"/><path d="m124.8 0h-87.467l-37.333 102.4h102.4z" fill="#f3705a"/><path d="m212.267 0h-87.467l-22.4 102.4h102.4z" fill="#f3f3f3"/><path d="m299.733 0h-87.466l-7.467 102.4h102.4z" fill="#f3705a"/><path d="m387.2 0h-87.467l7.467 102.4h102.4z" fill="#f3f3f3"/><path d="m474.667 0h-87.467l22.4 102.4h102.4z" fill="#f3705a"/><path d="m0 467.2h512v44.8h-512z" fill="#ced6e0"/><circle cx="320" cy="347.733" fill="#415a6b" r="13.867"/><path d="m65.067 228.267h180.267v162.133h-180.267z" fill="#415a6b"/><path d="m81.067 244.267h148.267v130.133h-148.267z" fill="#8ad7f8"/><g fill="#55c0eb"><path d="m158.933 264.533c-2.133-2.133-7.467-2.133-9.6 0l-52.266 52.267c-2.133 2.133-2.133 7.467 0 9.6s7.467 2.133 9.6 0l52.267-52.267c3.199-3.2 3.199-7.466-.001-9.6z"/><path d="m170.667 295.467c-2.133-2.133-7.467-2.133-9.6 0l-33.067 33.066c-2.133 2.133-2.133 7.467 0 9.6s7.467 2.133 9.6 0l33.067-33.067c3.2-3.199 3.2-7.466 0-9.599z"/></g></svg>